<svg width="82" height="35" viewBox="0 0 82 35" fill="none" xmlns="http://www.w3.org/2000/svg">
<path d="M59.6914 13.2764C65.6851 13.2765 70.5438 18.139 70.5439 24.1377C70.5439 30.1366 65.6852 34.9998 59.6914 35H13.8672C13.1782 35 12.5049 34.9324 11.8516 34.8096L0.000976562 35L4.46973 29.5684C3.54598 27.9705 3.01465 26.1165 3.01465 24.1377C3.01478 18.139 7.87354 13.2766 13.8672 13.2764H59.6914Z" fill="url(#paint0_linear_168_1138)"/>
<path d="M39.2781 28.9656V20.4207H35.9209V18.8276H44.5164V20.4207H41.1593V28.9656H39.2781Z" fill="white"/>
<path d="M29.9298 29.1102C29.1388 29.1102 28.4104 28.9799 27.7448 28.7192C27.0791 28.4585 26.5003 28.0964 26.0083 27.633C25.5163 27.1599 25.1353 26.6095 24.8651 25.9819C24.595 25.3447 24.46 24.6495 24.46 23.8964C24.46 23.1433 24.595 22.453 24.8651 21.8254C25.1353 21.1881 25.5163 20.6378 26.0083 20.1743C26.5003 19.7012 27.0791 19.3343 27.7448 19.0737C28.4104 18.813 29.134 18.6826 29.9154 18.6826C30.7064 18.6826 31.43 18.813 32.086 19.0737C32.7516 19.3343 33.3304 19.7012 33.8224 20.1743C34.3144 20.6378 34.6955 21.1881 34.9656 21.8254C35.2357 22.453 35.3708 23.1433 35.3708 23.8964C35.3708 24.6495 35.2357 25.3447 34.9656 25.9819C34.6955 26.6192 34.3144 27.1695 33.8224 27.633C33.3304 28.0964 32.7516 28.4585 32.086 28.7192C31.43 28.9799 30.7113 29.1102 29.9298 29.1102ZM29.9154 27.4592C30.4267 27.4592 30.8994 27.3723 31.3335 27.1985C31.7676 27.0247 32.1438 26.7785 32.4622 26.4599C32.7805 26.1316 33.0266 25.755 33.2002 25.3302C33.3835 24.8957 33.4751 24.4178 33.4751 23.8964C33.4751 23.375 33.3835 22.9019 33.2002 22.4771C33.0266 22.0426 32.7805 21.6661 32.4622 21.3474C32.1438 21.0192 31.7676 20.7681 31.3335 20.5943C30.8994 20.4205 30.4267 20.3337 29.9154 20.3337C29.4041 20.3337 28.9314 20.4205 28.4973 20.5943C28.0728 20.7681 27.6965 21.0192 27.3685 21.3474C27.0502 21.6661 26.7994 22.0426 26.6161 22.4771C26.4424 22.9019 26.3556 23.375 26.3556 23.8964C26.3556 24.4081 26.4424 24.8812 26.6161 25.3157C26.7994 25.7502 27.0502 26.1316 27.3685 26.4599C27.6869 26.7785 28.0631 27.0247 28.4973 27.1985C28.9314 27.3723 29.4041 27.4592 29.9154 27.4592Z" fill="white"/>
<path d="M20.5883 18.8276H22.4695V28.9656H20.5883V18.8276ZM15.3499 28.9656H13.4688V18.8276H15.3499V28.9656ZM20.733 24.6207H15.1908V23.0132H20.733V24.6207Z" fill="white"/>
<g clip-path="url(#clip0_168_1138)">
<path d="M53.7072 18.189L52.9469 17.7334L52.8021 18.6078C52.5715 19.9885 51.6283 21.2714 50.588 22.173C48.5514 23.9387 48.1054 25.8576 48.736 27.4417C49.3395 28.9575 50.871 29.9955 52.4255 30.1687L52.7852 30.2085C51.8957 29.6648 51.3248 28.3945 51.5239 27.4453C51.7207 26.5124 52.3917 25.6386 53.6807 24.8324L54.3306 24.4268L54.5732 25.154C54.7162 25.5837 54.9636 25.9288 55.2152 26.2794C55.3359 26.4484 55.4584 26.6192 55.5707 26.8008C55.9587 27.4314 56.0613 28.1326 55.8108 28.8284C55.5827 29.4608 55.2068 29.9581 54.6884 30.2338L55.2738 30.1687C56.7329 30.0063 57.804 29.5073 58.4998 28.6727C59.1896 27.8454 59.4315 26.7803 59.4315 25.6464C59.4315 24.5904 58.9977 23.5018 58.4859 22.596C57.8861 21.5351 57.1034 20.6541 56.2489 19.8002C56.1011 20.0959 56.1126 20.2154 55.8084 20.6903C55.4136 19.6414 54.6723 18.7589 53.7072 18.189Z" fill="white"/>
</g>
<path d="M69.9414 13.2759L72.3532 0L78.0002 5L69.9414 13.2759Z" fill="#F34032"/>
<path d="M72.3533 16.159L78.6954 13.1191L80.7212 17.7068L72.3533 16.159Z" fill="#F34032"/>
<defs>
<linearGradient id="paint0_linear_168_1138" x1="0.000976562" y1="23.8396" x2="70.5439" y2="23.8396" gradientUnits="userSpaceOnUse">
<stop stop-color="#F2322F"/>
<stop offset="1" stop-color="#FCD757"/>
</linearGradient>
<clipPath id="clip0_168_1138">
<rect width="14.4828" height="14.4828" fill="white" transform="translate(46.7588 16.8965)"/>
</clipPath>
</defs>
</svg>
