<svg width="24" height="24" viewBox="0 0 24 24" fill="none" xmlns="http://www.w3.org/2000/svg">
<g clip-path="url(#clip0_400_2003)">
<path d="M3.63556 11.293C3.44809 11.4805 3.34277 11.7348 3.34277 12C3.34277 12.2652 3.44809 12.5195 3.63556 12.707L9.29256 18.364C9.48116 18.5462 9.73376 18.6469 9.99596 18.6447C10.2582 18.6424 10.509 18.5372 10.6944 18.3518C10.8798 18.1664 10.985 17.9156 10.9872 17.6534C10.9895 17.3912 10.8887 17.1386 10.7066 16.95L6.75656 13H19.9996C20.2648 13 20.5191 12.8946 20.7067 12.7071C20.8942 12.5196 20.9996 12.2652 20.9996 12C20.9996 11.7348 20.8942 11.4804 20.7067 11.2929C20.5191 11.1054 20.2648 11 19.9996 11H6.75656L10.7066 7.05C10.8887 6.8614 10.9895 6.60879 10.9872 6.3466C10.985 6.0844 10.8798 5.83359 10.6944 5.64818C10.509 5.46277 10.2582 5.3576 9.99596 5.35532C9.73376 5.35305 9.48116 5.45384 9.29256 5.636L3.63556 11.293Z" fill="white"/>
</g>
<defs>
<clipPath id="clip0_400_2003">
<rect width="24" height="24" fill="white"/>
</clipPath>
</defs>
</svg>
