<svg width="24" height="24" viewBox="0 0 24 24" fill="none" xmlns="http://www.w3.org/2000/svg">
<g clip-path="url(#clip0_319_600)">
<path fill-rule="evenodd" clip-rule="evenodd" d="M17.5533 16.106C17.7723 15.9964 18.0239 15.9711 18.2604 16.0346C18.4969 16.0982 18.7018 16.2464 18.8363 16.451L18.8943 16.553L20.8943 20.553C20.9657 20.6956 21.0019 20.8533 20.9999 21.0128C20.9979 21.1723 20.9578 21.329 20.883 21.4698C20.8081 21.6106 20.7006 21.7315 20.5695 21.8224C20.4384 21.9132 20.2875 21.9714 20.1293 21.992L20.0003 22H4.00032C3.84079 22.0001 3.68356 21.9619 3.54177 21.8888C3.39997 21.8157 3.27772 21.7098 3.18523 21.5798C3.09274 21.4498 3.03268 21.2996 3.01009 21.1417C2.98749 20.9837 3.003 20.8227 3.05532 20.672L3.10532 20.552L5.10532 16.552C5.21742 16.3203 5.41455 16.1407 5.65568 16.0507C5.89681 15.9606 6.16338 15.967 6.39991 16.0686C6.63644 16.1701 6.82472 16.3589 6.92557 16.5957C7.02641 16.8325 7.03205 17.0991 6.94132 17.34L6.89432 17.447L5.61832 20H18.3823L17.1063 17.447C16.9879 17.2099 16.9685 16.9354 17.0523 16.684C17.1361 16.4325 17.3163 16.2246 17.5533 16.106ZM12.0003 2C13.8568 2 15.6373 2.7375 16.9501 4.05025C18.2628 5.36301 19.0003 7.14348 19.0003 9C19.0003 11.382 17.7113 13.317 16.3773 14.69C15.6404 15.4384 14.8304 16.1111 13.9593 16.698L13.5863 16.944L13.2543 17.153C13.2023 17.184 13.1523 17.213 13.1053 17.243L12.8483 17.391C12.3203 17.691 11.6803 17.691 11.1523 17.391L10.8953 17.242L10.5853 17.053C10.5281 17.017 10.4711 16.9807 10.4143 16.944L10.0413 16.698C9.17027 16.1111 8.36022 15.4384 7.62332 14.69C6.28932 13.317 5.00032 11.382 5.00032 9C5.00032 7.14348 5.73782 5.36301 7.05057 4.05025C8.36333 2.7375 10.1438 2 12.0003 2ZM12.0003 4C10.6742 4 9.40247 4.52678 8.46479 5.46447C7.52711 6.40215 7.00032 7.67392 7.00032 9C7.00032 10.636 7.89032 12.095 9.05732 13.296C9.75883 14.0055 10.5346 14.6375 11.3713 15.181L11.7113 15.398C11.8163 15.463 11.9133 15.521 12.0003 15.572L12.2903 15.398L12.6293 15.181C13.466 14.6375 14.2418 14.0055 14.9433 13.296C16.1103 12.096 17.0003 10.636 17.0003 9C17.0003 7.67392 16.4735 6.40215 15.5359 5.46447C14.5982 4.52678 13.3264 4 12.0003 4ZM12.0003 6C12.796 6 13.559 6.31607 14.1216 6.87868C14.6843 7.44129 15.0003 8.20435 15.0003 9C15.0003 9.79565 14.6843 10.5587 14.1216 11.1213C13.559 11.6839 12.796 12 12.0003 12C11.2047 12 10.4416 11.6839 9.879 11.1213C9.31639 10.5587 9.00032 9.79565 9.00032 9C9.00032 8.20435 9.31639 7.44129 9.879 6.87868C10.4416 6.31607 11.2047 6 12.0003 6ZM12.0003 8C11.7351 8 11.4808 8.10536 11.2932 8.29289C11.1057 8.48043 11.0003 8.73478 11.0003 9C11.0003 9.26522 11.1057 9.51957 11.2932 9.70711C11.4808 9.89464 11.7351 10 12.0003 10C12.2655 10 12.5199 9.89464 12.7074 9.70711C12.895 9.51957 13.0003 9.26522 13.0003 9C13.0003 8.73478 12.895 8.48043 12.7074 8.29289C12.5199 8.10536 12.2655 8 12.0003 8Z" fill="white"/>
</g>
<defs>
<clipPath id="clip0_319_600">
<rect width="24" height="24" fill="white"/>
</clipPath>
</defs>
</svg>
