<svg width="32" height="32" viewBox="0 0 32 32" fill="none" xmlns="http://www.w3.org/2000/svg">
<g clip-path="url(#clip0_168_940)">
<path d="M16.0003 2.66669C23.3643 2.66669 29.3337 8.63602 29.3337 16C29.3337 23.364 23.3643 29.3334 16.0003 29.3334C8.63633 29.3334 2.66699 23.364 2.66699 16C2.66699 8.63602 8.63633 2.66669 16.0003 2.66669ZM18.2443 21.2667C16.7496 21.3553 15.251 21.3553 13.7563 21.2667C13.9377 22.3147 14.1683 23.2587 14.4363 24.064C14.7723 25.072 15.143 25.792 15.4897 26.232C15.607 26.3787 15.787 26.6667 16.003 26.6667C16.1963 26.6494 16.4057 26.364 16.5097 26.232C16.8563 25.792 17.2283 25.072 17.563 24.064C17.8596 23.15 18.0882 22.2149 18.2443 21.2667ZM26.0177 19.6734C25.6643 19.8254 25.2923 19.9654 24.907 20.0934C23.771 20.472 22.443 20.776 20.987 20.9867C20.8046 22.317 20.5057 23.6287 20.0937 24.9067C19.9657 25.2934 19.8257 25.664 19.6737 26.0174C21.1274 25.4823 22.4475 24.6379 23.5429 23.5426C24.6382 22.4472 25.4826 21.1271 26.0177 19.6734ZM5.98299 19.6734C6.51805 21.1271 7.36243 22.4472 8.45778 23.5426C9.55312 24.6379 10.8733 25.4823 12.327 26.0174C12.1714 25.6532 12.0313 25.2826 11.907 24.9067C11.495 23.6287 11.196 22.317 11.0137 20.9867C9.68335 20.8043 8.37164 20.5054 7.09366 20.0934C6.70699 19.9654 6.33633 19.8254 5.98299 19.6734ZM13.4297 13.4294C13.3 15.1407 13.3 16.8594 13.4297 18.5707C15.139 18.7 16.8617 18.7 18.571 18.5707C18.7006 16.8594 18.7006 15.1407 18.571 13.4294C16.8597 13.2997 15.141 13.2997 13.4297 13.4294ZM21.267 13.756C21.3556 15.2507 21.3556 16.7493 21.267 18.244C22.2151 18.0875 23.1502 17.8602 24.0643 17.564C25.0723 17.228 25.7923 16.8574 26.2323 16.5107C26.379 16.3947 26.667 16.212 26.667 15.9974C26.6497 15.804 26.3643 15.5947 26.2323 15.4907C25.7923 15.144 25.0723 14.772 24.0643 14.4374C23.1502 14.1412 22.2151 13.9126 21.267 13.756ZM10.7337 13.756C9.68566 13.9374 8.74299 14.168 7.93633 14.436C6.92833 14.772 6.20966 15.1427 5.76833 15.4894C5.44833 15.7427 5.35233 15.9334 5.33766 15.98C5.27766 16.18 5.64433 16.4107 5.76833 16.5094C6.20833 16.856 6.92833 17.228 7.93633 17.5627C8.74299 17.832 9.68566 18.0627 10.7337 18.2427C10.6451 16.7489 10.6451 15.2498 10.7337 13.756ZM12.327 5.98269C10.8733 6.51782 9.55321 7.36224 8.45787 8.45757C7.36254 9.5529 6.51812 10.873 5.98299 12.3267C6.33633 12.1747 6.70833 12.0347 7.09366 11.9067C8.37164 11.4947 9.68335 11.1957 11.0137 11.0134C11.2243 9.55735 11.5283 8.22935 11.907 7.09335C12.035 6.70669 12.175 6.33602 12.327 5.98269ZM19.6737 5.98269C19.8257 6.33602 19.9657 6.70802 20.0937 7.09335C20.4723 8.22935 20.7763 9.55735 20.987 11.0134C22.443 11.224 23.771 11.528 24.907 11.9067C25.2937 12.0347 25.6643 12.1747 26.0177 12.3267C25.4826 10.873 24.6382 9.55281 23.5429 8.45747C22.4475 7.36213 21.1274 6.51774 19.6737 5.98269ZM16.0003 5.33335C15.815 5.33335 15.5843 5.64935 15.491 5.76802C15.1443 6.20802 14.7723 6.92802 14.4377 7.93602C14.1415 8.85018 13.9142 9.78524 13.7577 10.7334C15.2515 10.6448 16.7492 10.6448 18.243 10.7334C18.0865 9.78524 17.8592 8.85018 17.563 7.93602C17.2283 6.92802 16.8563 6.20935 16.5097 5.76802C16.4163 5.64802 16.187 5.33335 16.0003 5.33335Z" fill="white"/>
</g>
<defs>
<clipPath id="clip0_168_940">
<rect width="32" height="32" fill="white"/>
</clipPath>
</defs>
</svg>
