<svg width="24" height="24" viewBox="0 0 24 24" fill="none" xmlns="http://www.w3.org/2000/svg">
<g clip-path="url(#clip0_319_594)">
<path fill-rule="evenodd" clip-rule="evenodd" d="M12 3.99999C11.606 3.99999 11.2159 4.07759 10.8519 4.22835C10.488 4.37912 10.1573 4.60009 9.87868 4.87867C9.6001 5.15724 9.37913 5.48796 9.22836 5.85194C9.0776 6.21592 9 6.60602 9 6.99999C9 7.39396 9.0776 7.78406 9.22836 8.14804C9.37913 8.51202 9.6001 8.84273 9.87868 9.12131C10.1573 9.39989 10.488 9.62086 10.8519 9.77163C11.2159 9.92239 11.606 9.99999 12 9.99999C12.7956 9.99999 13.5587 9.68392 14.1213 9.12131C14.6839 8.5587 15 7.79564 15 6.99999C15 6.20434 14.6839 5.44128 14.1213 4.87867C13.5587 4.31606 12.7956 3.99999 12 3.99999ZM7 6.99999C7.00019 6.05396 7.26877 5.1274 7.77454 4.32791C8.2803 3.52843 9.0025 2.88884 9.85726 2.48342C10.712 2.078 11.6642 1.92339 12.6034 2.03755C13.5425 2.15171 14.4299 2.52995 15.1627 3.12835C15.8954 3.72675 16.4433 4.52074 16.7428 5.41811C17.0423 6.31548 17.0811 7.27941 16.8546 8.19793C16.6282 9.11646 16.1458 9.95189 15.4634 10.6072C14.7811 11.2625 13.9269 11.7108 13 11.9V17C13 17.2652 12.8946 17.5196 12.7071 17.7071C12.5196 17.8946 12.2652 18 12 18C11.7348 18 11.4804 17.8946 11.2929 17.7071C11.1054 17.5196 11 17.2652 11 17V11.9C9.87081 11.6691 8.85599 11.0554 8.12714 10.1625C7.3983 9.26969 7.00014 8.15254 7 6.99999ZM9.489 16.1C9.50889 16.2299 9.50299 16.3624 9.47163 16.49C9.44028 16.6176 9.38408 16.7378 9.30626 16.8437C9.22843 16.9495 9.1305 17.039 9.01807 17.107C8.90564 17.175 8.7809 17.2202 8.651 17.24C7.373 17.434 6.358 17.729 5.691 18.055C4.471 18.652 5.897 19.081 6.641 19.313C7.968 19.728 9.863 20 12 20C14.137 20 16.032 19.728 17.359 19.313C18.108 19.079 19.529 18.653 18.309 18.055C17.642 17.729 16.627 17.435 15.349 17.24C15.2177 17.222 15.0912 17.178 14.977 17.1107C14.8628 17.0434 14.7632 16.954 14.6838 16.8478C14.6045 16.7416 14.547 16.6207 14.5149 16.4921C14.4827 16.3635 14.4764 16.2298 14.4963 16.0988C14.5163 15.9677 14.5621 15.8419 14.6311 15.7287C14.7001 15.6155 14.7909 15.5172 14.8983 15.4394C15.0056 15.3617 15.1274 15.306 15.2564 15.2757C15.3855 15.2454 15.5193 15.2411 15.65 15.263C17.038 15.473 18.272 15.81 19.189 16.259C20.073 16.692 21 17.421 21 18.5C21 19.311 20.476 19.9 19.966 20.277C17.816 21.865 14.536 22 12 22C9.718 22 7.613 21.712 6.045 21.222C4.795 20.832 3 20.062 3 18.5C3 17.42 3.927 16.692 4.811 16.26C5.728 15.81 6.963 15.474 8.349 15.263C8.47889 15.2431 8.61142 15.249 8.73902 15.2804C8.86662 15.3117 8.9868 15.3679 9.09267 15.4457C9.19854 15.5236 9.28804 15.6215 9.35604 15.7339C9.42405 15.8464 9.46923 15.9701 9.489 16.1Z" fill="white"/>
</g>
<defs>
<clipPath id="clip0_319_594">
<rect width="24" height="24" fill="white"/>
</clipPath>
</defs>
</svg>
