<svg width="16" height="17" viewBox="0 0 16 17" fill="none" xmlns="http://www.w3.org/2000/svg">
<g clip-path="url(#clip0_168_1753)">
<path fill-rule="evenodd" clip-rule="evenodd" d="M11.035 15.2555C10.075 15.2201 7.35433 14.8441 4.50499 11.9955C1.65633 9.14614 1.28099 6.42614 1.24499 5.46548C1.19166 4.00148 2.31299 2.57948 3.60833 2.02414C3.76431 1.95679 3.93513 1.93114 4.10401 1.94973C4.2729 1.96831 4.43405 2.03048 4.57166 2.13014C5.63833 2.90748 6.37433 4.08348 7.00633 5.00814C7.14538 5.2113 7.20484 5.45851 7.17336 5.70267C7.14189 5.94684 7.02169 6.17089 6.83566 6.33214L5.53499 7.29814C5.47215 7.34352 5.42792 7.41016 5.41051 7.48569C5.3931 7.56122 5.40369 7.6405 5.44033 7.70881C5.73499 8.24414 6.25899 9.04148 6.85899 9.64148C7.45966 10.2415 8.29433 10.8001 8.86699 11.1281C8.93879 11.1685 9.02331 11.1797 9.10316 11.1596C9.18302 11.1395 9.25214 11.0896 9.29632 11.0201L10.143 9.73148C10.2986 9.52471 10.5283 9.38619 10.7838 9.34493C11.0393 9.30367 11.3008 9.36288 11.5137 9.51014C12.4517 10.1595 13.5463 10.8828 14.3477 11.9088C14.4554 12.0474 14.524 12.2124 14.5461 12.3866C14.5683 12.5607 14.5433 12.7376 14.4737 12.8988C13.9157 14.2008 12.5037 15.3095 11.035 15.2555Z" fill="#36464E"/>
</g>
<defs>
<clipPath id="clip0_168_1753">
<rect width="16" height="16" fill="white" transform="translate(0 0.5)"/>
</clipPath>
</defs>
</svg>
