<svg width="24" height="24" viewBox="0 0 24 24" fill="none" xmlns="http://www.w3.org/2000/svg">
<g clip-path="url(#clip0_319_583)">
<path fill-rule="evenodd" clip-rule="evenodd" d="M9.58625 15C10.1166 15.0001 10.6253 15.2109 11.0003 15.586L12.0003 16.586L13.0003 15.586C13.3752 15.2109 13.8839 15.0001 14.4143 15H18.4382C19.1072 15.0001 19.7569 15.2237 20.2841 15.6354C20.8114 16.047 21.1859 16.6231 21.3482 17.272L21.9702 19.758C22.0047 19.8862 22.0132 20.02 21.9953 20.1516C21.9775 20.2831 21.9336 20.4098 21.8663 20.5243C21.7989 20.6387 21.7095 20.7386 21.6032 20.8181C21.4968 20.8975 21.3757 20.9551 21.2469 20.9873C21.1181 21.0195 20.9842 21.0257 20.853 21.0056C20.7218 20.9855 20.5958 20.9395 20.4826 20.8702C20.3693 20.8009 20.271 20.7098 20.1933 20.6021C20.1157 20.4944 20.0602 20.3723 20.0303 20.243L19.4093 17.758C19.3553 17.5416 19.2305 17.3494 19.0547 17.212C18.879 17.0747 18.6623 17.0001 18.4392 17H14.4143L13.4143 18C13.0392 18.3749 12.5306 18.5856 12.0003 18.5856C11.4699 18.5856 10.9613 18.3749 10.5863 18L9.58625 17H5.56225C5.33919 17.0001 5.12255 17.0747 4.94679 17.212C4.77103 17.3494 4.64623 17.5416 4.59225 17.758L3.97025 20.243C3.94026 20.3723 3.88482 20.4944 3.80716 20.6021C3.7295 20.7098 3.63117 20.8009 3.51792 20.8702C3.40466 20.9395 3.27875 20.9855 3.14751 21.0056C3.01628 21.0257 2.88236 21.0195 2.75356 20.9873C2.62476 20.9551 2.50366 20.8975 2.39733 20.8181C2.29099 20.7386 2.20155 20.6387 2.13422 20.5243C2.06689 20.4098 2.02303 20.2831 2.00517 20.1516C1.98732 20.02 1.99585 19.8862 2.03025 19.758L2.65125 17.272C2.81358 16.6231 3.18812 16.047 3.71537 15.6354C4.24262 15.2237 4.89233 15.0001 5.56125 15H9.58625ZM12.0003 2C12.7843 2 13.6613 2.19 14.3803 2.391C16.0433 2.854 17.0003 4.41 17.0003 5.997V10.003C17.0003 11.591 16.0433 13.146 14.3803 13.609C13.6613 13.809 12.7843 14 12.0003 14C11.2163 14 10.3393 13.81 9.62025 13.609C7.95725 13.146 7.00025 11.591 7.00025 10.003V5.997C7.00025 4.41 7.95725 2.854 9.62025 2.391C10.3393 2.191 11.2163 2 12.0003 2ZM12.0003 4C11.4913 4 10.8233 4.132 10.1573 4.318C9.48925 4.504 9.00025 5.165 9.00025 5.997V10.003C9.00025 10.835 9.48925 11.496 10.1573 11.683C10.8233 11.868 11.4913 12 12.0003 12C12.5093 12 13.1773 11.868 13.8433 11.682C14.5113 11.496 15.0003 10.835 15.0003 10.003V5.997C15.0003 5.165 14.5113 4.504 13.8433 4.317C13.1773 4.133 12.5103 4 12.0003 4Z" fill="white"/>
</g>
<defs>
<clipPath id="clip0_319_583">
<rect width="24" height="24" fill="white"/>
</clipPath>
</defs>
</svg>
