<svg width="16" height="17" viewBox="0 0 16 17" fill="none" xmlns="http://www.w3.org/2000/svg">
<g clip-path="url(#clip0_168_1747)">
<path d="M1.37834 4.1545L7.29501 10.0718C7.47004 10.247 7.70384 10.351 7.95113 10.3637C8.19843 10.3763 8.44164 10.2968 8.63367 10.1405L8.70967 10.0718L14.6223 4.1585C14.6417 4.23184 14.6543 4.3065 14.661 4.38317L14.6663 4.49984V12.4998C14.6664 12.8362 14.5394 13.1602 14.3107 13.4069C14.0819 13.6535 13.7684 13.8046 13.433 13.8298L13.333 13.8332H2.66634C2.32996 13.8333 2.00596 13.7062 1.75931 13.4775C1.51265 13.2488 1.36157 12.9353 1.33634 12.5998L1.33301 12.4998V4.49984C1.33301 4.41984 1.33967 4.3425 1.35301 4.2665L1.37834 4.1545ZM13.333 3.1665C13.4137 3.1665 13.493 3.17317 13.5697 3.18717L13.683 3.21317L8.00301 8.89317L2.32101 3.21184C2.39434 3.19184 2.47034 3.1785 2.54767 3.17184L2.66634 3.1665H13.333Z" fill="#36464E"/>
</g>
<defs>
<clipPath id="clip0_168_1747">
<rect width="16" height="16" fill="white" transform="translate(0 0.5)"/>
</clipPath>
</defs>
</svg>
