<svg width="40" height="40" viewBox="0 0 40 40" fill="none" xmlns="http://www.w3.org/2000/svg">
<g clip-path="url(#clip0_552_270)">
<path fill-rule="evenodd" clip-rule="evenodd" d="M29.2546 26.8434C29.6196 26.6608 30.0389 26.6185 30.433 26.7244C30.8272 26.8304 31.1687 27.0773 31.3929 27.4184L31.4896 27.5884L34.8229 34.255C34.9418 34.4928 35.0022 34.7555 34.9989 35.0213C34.9956 35.2872 34.9288 35.5483 34.804 35.7831C34.6792 36.0178 34.5001 36.2193 34.2816 36.3707C34.063 36.5221 33.8115 36.619 33.5479 36.6534L33.3329 36.6667H6.66623C6.40034 36.6668 6.1383 36.6033 5.90197 36.4814C5.66565 36.3596 5.4619 36.183 5.30774 35.9664C5.15359 35.7497 5.0535 35.4993 5.01583 35.2361C4.97817 34.9729 5.00402 34.7045 5.09123 34.4534L5.17456 34.2534L8.50789 27.5867C8.69472 27.2005 9.02327 26.9013 9.42515 26.7512C9.82704 26.6011 10.2713 26.6118 10.6655 26.781C11.0598 26.9502 11.3736 27.2649 11.5416 27.6596C11.7097 28.0543 11.7191 28.4986 11.5679 28.9L11.4896 29.0784L9.36289 33.3334H30.6362L28.5096 29.0784C28.3122 28.6832 28.2798 28.2258 28.4195 27.8067C28.5592 27.3876 28.8595 27.0411 29.2546 26.8434ZM19.9996 3.33337C23.0938 3.33337 26.0612 4.56254 28.2491 6.75046C30.4371 8.93839 31.6662 11.9058 31.6662 15C31.6662 18.97 29.5179 22.195 27.2946 24.4834C26.0664 25.7307 24.7163 26.8519 23.2646 27.83L22.6429 28.24L22.0896 28.5884C22.0029 28.64 21.9196 28.6884 21.8412 28.7384L21.4129 28.985C20.5329 29.485 19.4662 29.485 18.5862 28.985L18.1579 28.7367L17.6412 28.4217C17.5459 28.3617 17.4509 28.3012 17.3562 28.24L16.7346 27.83C15.2828 26.8519 13.9327 25.7308 12.7046 24.4834C10.4812 22.195 8.33289 18.97 8.33289 15C8.33289 11.9058 9.56206 8.93839 11.75 6.75046C13.9379 4.56254 16.9054 3.33337 19.9996 3.33337ZM19.9996 6.66671C17.7894 6.66671 15.6698 7.54468 14.107 9.10748C12.5442 10.6703 11.6662 12.7899 11.6662 15C11.6662 17.7267 13.1496 20.1584 15.0946 22.16C16.2637 23.3425 17.5567 24.3958 18.9512 25.3017L19.5179 25.6634C19.6929 25.7717 19.8546 25.8684 19.9996 25.9534L20.4829 25.6634L21.0479 25.3017C22.4424 24.3958 23.7354 23.3425 24.9046 22.16C26.8496 20.16 28.3329 17.7267 28.3329 15C28.3329 12.7899 27.4549 10.6703 25.8921 9.10748C24.3293 7.54468 22.2097 6.66671 19.9996 6.66671ZM19.9996 10C21.3256 10 22.5974 10.5268 23.5351 11.4645C24.4728 12.4022 24.9996 13.674 24.9996 15C24.9996 16.3261 24.4728 17.5979 23.5351 18.5356C22.5974 19.4733 21.3256 20 19.9996 20C18.6735 20 17.4017 19.4733 16.464 18.5356C15.5263 17.5979 14.9996 16.3261 14.9996 15C14.9996 13.674 15.5263 12.4022 16.464 11.4645C17.4017 10.5268 18.6735 10 19.9996 10ZM19.9996 13.3334C19.5575 13.3334 19.1336 13.509 18.8211 13.8215C18.5085 14.1341 18.3329 14.558 18.3329 15C18.3329 15.4421 18.5085 15.866 18.8211 16.1786C19.1336 16.4911 19.5575 16.6667 19.9996 16.6667C20.4416 16.6667 20.8655 16.4911 21.1781 16.1786C21.4906 15.866 21.6662 15.4421 21.6662 15C21.6662 14.558 21.4906 14.1341 21.1781 13.8215C20.8655 13.509 20.4416 13.3334 19.9996 13.3334Z" fill="#C4C4C4"/>
</g>
<defs>
<clipPath id="clip0_552_270">
<rect width="40" height="40" fill="white"/>
</clipPath>
</defs>
</svg>
