<svg width="80" height="80" viewBox="0 0 80 80" fill="none" xmlns="http://www.w3.org/2000/svg">
<g opacity="0.5" clip-path="url(#clip0_291_482)">
<path fill-rule="evenodd" clip-rule="evenodd" d="M40.0003 6.66669C58.4103 6.66669 73.3337 21.59 73.3337 40C73.3337 58.41 58.4103 73.3334 40.0003 73.3334C21.5903 73.3334 6.66699 58.41 6.66699 40C6.66699 21.59 21.5903 6.66669 40.0003 6.66669ZM40.0003 13.3334C32.9279 13.3334 26.1451 16.1429 21.1441 21.1438C16.1432 26.1448 13.3337 32.9276 13.3337 40C13.3337 47.0725 16.1432 53.8552 21.1441 58.8562C26.1451 63.8572 32.9279 66.6667 40.0003 66.6667C47.0728 66.6667 53.8555 63.8572 58.8565 58.8562C63.8575 53.8552 66.667 47.0725 66.667 40C66.667 32.9276 63.8575 26.1448 58.8565 21.1438C53.8555 16.1429 47.0728 13.3334 40.0003 13.3334ZM29.8803 28.8334C29.954 28.2201 30.1696 27.6325 30.5101 27.1172C30.8506 26.6018 31.3065 26.173 31.8416 25.8646C32.3768 25.5563 32.9765 25.3769 33.5931 25.3408C34.2097 25.3047 34.8262 25.4129 35.3937 25.6567L36.477 26.1334L37.9437 26.8067L39.107 27.37L40.407 28.0234L41.8403 28.7667L43.3803 29.6034L45.027 30.5367L45.857 31.02L47.4203 31.96L48.847 32.8534L50.727 34.08L52.2737 35.14L53.7903 36.2334L54.067 36.4367C56.1837 38.0267 56.2003 41.2 54.0703 42.8L53.127 43.4967L51.817 44.4167L50.1637 45.5334L48.8737 46.3667L47.4403 47.2667L45.8637 48.21C45.5903 48.3734 45.3103 48.5367 45.0237 48.7L43.3637 49.64L41.8103 50.4834L40.377 51.23L39.077 51.8834L37.3937 52.69L36.0603 53.2934L35.387 53.5867C34.8198 53.8286 34.204 53.9351 33.5885 53.8978C32.9729 53.8606 32.3745 53.6806 31.8406 53.3721C31.3067 53.0635 30.8519 52.635 30.5122 52.1203C30.1726 51.6056 29.9574 51.0189 29.8837 50.4067L29.7037 48.7434L29.6037 47.63L29.4637 45.6334L29.3837 44.1L29.3237 42.4134L29.2903 40.5834V38.6534L29.3237 36.8267L29.3837 35.14L29.4637 33.6067L29.6037 31.61L29.8403 29.1767L29.8803 28.8334ZM36.1603 33.35L36.0703 34.9067L36.0003 36.6567L35.9603 38.59V40.65L36.0003 42.5834L36.067 44.3334L36.1603 45.89L37.547 45.19L38.3003 44.7967L39.927 43.9234L41.6937 42.9267L43.4337 41.8967L44.2403 41.4034L45.7203 40.47L47.0203 39.62L45.7137 38.7634L44.2337 37.8267L42.5803 36.8267C41.7071 36.3097 40.8258 35.8064 39.937 35.3167L38.3103 34.4434L36.837 33.6867L36.1603 33.35Z" fill="white"/>
</g>
<defs>
<clipPath id="clip0_291_482">
<rect width="80" height="80" fill="white"/>
</clipPath>
</defs>
</svg>
