<svg width="40" height="40" viewBox="0 0 40 40" fill="none" xmlns="http://www.w3.org/2000/svg">
<g clip-path="url(#clip0_552_390)">
<path fill-rule="evenodd" clip-rule="evenodd" d="M20 6.66672C19.3434 6.66672 18.6932 6.79605 18.0866 7.04732C17.48 7.2986 16.9288 7.66689 16.4645 8.13119C16.0002 8.59548 15.6319 9.14668 15.3806 9.7533C15.1293 10.3599 15 11.0101 15 11.6667C15 12.3233 15.1293 12.9735 15.3806 13.5801C15.6319 14.1868 16.0002 14.738 16.4645 15.2023C16.9288 15.6665 17.48 16.0348 18.0866 16.2861C18.6932 16.5374 19.3434 16.6667 20 16.6667C21.3261 16.6667 22.5979 16.1399 23.5355 15.2023C24.4732 14.2646 25 12.9928 25 11.6667C25 10.3406 24.4732 9.06887 23.5355 8.13119C22.5979 7.1935 21.3261 6.66672 20 6.66672ZM11.6667 11.6667C11.667 10.09 12.1146 8.54573 12.9576 7.21326C13.8005 5.88079 15.0042 4.8148 16.4288 4.1391C17.8534 3.4634 19.4404 3.20572 21.0056 3.39599C22.5708 3.58625 24.0499 4.21666 25.2711 5.21399C26.4923 6.21131 27.4056 7.53464 27.9047 9.03026C28.4039 10.5259 28.4685 12.1324 28.091 13.6633C27.7136 15.1942 26.9096 16.5865 25.7724 17.6787C24.6352 18.7709 23.2115 19.518 21.6667 19.8334V28.3334C21.6667 28.7754 21.4911 29.1993 21.1785 29.5119C20.8659 29.8245 20.442 30.0001 20 30.0001C19.558 30.0001 19.134 29.8245 18.8215 29.5119C18.5089 29.1993 18.3333 28.7754 18.3333 28.3334V19.8334C16.4513 19.4486 14.76 18.4257 13.5452 16.9376C12.3305 15.4495 11.6669 13.5876 11.6667 11.6667ZM15.815 26.8334C15.8482 27.0499 15.8383 27.2707 15.7861 27.4834C15.7338 27.6961 15.6401 27.8964 15.5104 28.0728C15.3807 28.2493 15.2175 28.3984 15.0301 28.5118C14.8427 28.6251 14.6348 28.7004 14.4183 28.7334C12.2883 29.0567 10.5967 29.5484 9.485 30.0917C7.45167 31.0867 9.82833 31.8017 11.0683 32.1884C13.28 32.8801 16.4383 33.3334 20 33.3334C23.5617 33.3334 26.72 32.8801 28.9317 32.1884C30.18 31.7984 32.5483 31.0884 30.515 30.0917C29.4033 29.5484 27.7117 29.0584 25.5817 28.7334C25.3628 28.7034 25.152 28.6301 24.9617 28.5179C24.7714 28.4057 24.6053 28.2568 24.473 28.0798C24.3408 27.9028 24.2451 27.7012 24.1914 27.4869C24.1378 27.2726 24.1273 27.0497 24.1605 26.8313C24.1938 26.6129 24.2701 26.4033 24.3851 26.2146C24.5001 26.026 24.6515 25.8621 24.8304 25.7325C25.0093 25.6029 25.2123 25.5101 25.4273 25.4596C25.6424 25.4091 25.8654 25.4019 26.0833 25.4384C28.3967 25.7884 30.4533 26.3501 31.9817 27.0984C33.455 27.8201 35 29.0351 35 30.8334C35 32.1851 34.1267 33.1667 33.2767 33.7951C29.6933 36.4417 24.2267 36.6667 20 36.6667C16.1967 36.6667 12.6883 36.1867 10.075 35.3701C7.99167 34.7201 5 33.4367 5 30.8334C5 29.0334 6.545 27.8201 8.01833 27.1001C9.54667 26.3501 11.605 25.7901 13.915 25.4384C14.1315 25.4052 14.3524 25.4151 14.565 25.4673C14.7777 25.5196 14.978 25.6133 15.1544 25.743C15.3309 25.8727 15.4801 26.0359 15.5934 26.2233C15.7067 26.4107 15.782 26.6169 15.815 26.8334Z" fill="#FDDD59"/>
</g>
<defs>
<clipPath id="clip0_552_390">
<rect width="40" height="40" fill="white"/>
</clipPath>
</defs>
</svg>
