<svg width="116" height="116" viewBox="0 0 116 116" fill="none" xmlns="http://www.w3.org/2000/svg">
<circle cx="58" cy="58" r="57.5" fill="#FDDD59"/>
<mask id="mask0_291_536" style="mask-type:alpha" maskUnits="userSpaceOnUse" x="0" y="0" width="116" height="116">
<circle cx="58" cy="58" r="57.5" fill="#0FC0DD"/>
</mask>
<g mask="url(#mask0_291_536)">
<path d="M66 130.5L22.5 83L88 54.5L118.5 83L66 130.5Z" fill="#EBCA3E"/>
</g>
<circle cx="74.6406" cy="38.9219" r="14.4219" fill="#FFF6DD"/>
<mask id="mask1_291_536" style="mask-type:alpha" maskUnits="userSpaceOnUse" x="60" y="24" width="30" height="30">
<circle cx="74.6406" cy="38.9219" r="14.4219" fill="#FFF6DD"/>
</mask>
<g mask="url(#mask1_291_536)">
<path d="M68.5391 38.3672C65.8774 39.2544 60.7767 39.4764 58.5568 39.4766C58.587 35.4162 58.9479 27.8585 60.2188 26.1641C61.8828 23.9453 72.9766 22.8359 74.6406 22.8359C80.1875 22.8359 85.1797 26.1641 86.8438 27.2734C88.175 28.1609 91.651 36.888 92.9453 41.6953C90.3568 41.3255 84.4031 40.2531 81.2969 38.9219C78.1906 37.5906 75.5651 33.9297 74.6406 32.2656C73.7161 33.9297 71.2016 37.4797 68.5391 38.3672Z" fill="#555555"/>
</g>
<path d="M55.7812 61.3437C55.7812 56.9255 59.363 53.3438 63.7812 53.3438H85.5C89.9183 53.3438 93.5 56.9255 93.5 61.3438V81.5156C93.5 83.7248 91.7091 85.5156 89.5 85.5156H59.7812C57.5721 85.5156 55.7812 83.7248 55.7812 81.5156V61.3437Z" fill="#0DC0DE"/>
<path d="M74.6406 72.2031L65.7656 53.3438H84.0703L74.6406 72.2031Z" fill="white"/>
<circle cx="74.6406" cy="56.6719" r="1.10938" fill="#616161"/>
<circle cx="74.6406" cy="61.1094" r="1.10938" fill="#616161"/>
<circle cx="41.3594" cy="38.9219" r="14.4219" fill="#FFF6DD"/>
<mask id="mask2_291_536" style="mask-type:alpha" maskUnits="userSpaceOnUse" x="26" y="24" width="30" height="30">
<circle cx="41.3594" cy="38.9219" r="14.4219" fill="#FFF6DD"/>
</mask>
<g mask="url(#mask2_291_536)">
<path d="M33.0391 35.6663C31.7078 36.9975 26.9375 39.5491 24.7188 40.6585C24.7188 38.6246 24.8297 34.3351 25.2734 33.4476C25.8281 32.3382 32.4844 22.9085 39.6953 22.3538C46.9062 21.7991 50.2344 24.5725 54.6719 25.6819C58.2219 26.5694 58.7396 37.5152 58.5547 42.8772C56.151 42.8772 49.9016 42.1007 44.1328 38.9944C38.3641 35.8882 36.1823 32.8928 35.8125 31.7835C35.4427 32.5231 34.3703 34.335 33.0391 35.6663Z" fill="#A6701B"/>
</g>
<path d="M22.5 61.3437C22.5 56.9255 26.0817 53.3438 30.5 53.3438H52.2188C56.637 53.3438 60.2188 56.9255 60.2188 61.3438V81.5156C60.2188 83.7248 58.4279 85.5156 56.2188 85.5156H26.5C24.2909 85.5156 22.5 83.7248 22.5 81.5156V61.3437Z" fill="#3B818D"/>
<path d="M41.3594 72.2031L32.4844 53.3438H50.7891L41.3594 72.2031Z" fill="white"/>
<path d="M41.082 56.1172L38.0312 57.7812V54.4531L41.082 56.1172ZM44.1328 57.7812L41.082 56.1172L44.1328 54.4531V57.7812Z" fill="#0DC0DE"/>
<path d="M23.5 86.75L30.624 86.75L30.624 58.5L40.624 58.5L40.624 86.75L47.748 86.75L35.624 99.5L23.5 86.75Z" fill="#FF8484"/>
</svg>
