<svg width="116" height="116" viewBox="0 0 116 116" fill="none" xmlns="http://www.w3.org/2000/svg">
<circle cx="57.666" cy="58" r="57.5" fill="#6BCCAB"/>
<mask id="mask0_291_574" style="mask-type:alpha" maskUnits="userSpaceOnUse" x="0" y="0" width="116" height="116">
<circle cx="57.666" cy="58" r="57.5" fill="#0FC0DD"/>
</mask>
<g mask="url(#mask0_291_574)">
<path d="M79.166 148.5L42.166 89.5L84.166 66.5L118.166 99L79.166 148.5Z" fill="#54BA98"/>
</g>
<circle cx="53.166" cy="37.5" r="15" fill="#FDDD59"/>
<circle opacity="0.3" cx="53.166" cy="37.5" r="23" fill="#FDDD59"/>
<path fill-rule="evenodd" clip-rule="evenodd" d="M53.3859 42.5C51.496 42.5 49.6834 43.2507 48.347 44.5869C47.0106 45.9231 46.2598 47.7353 46.2598 49.625V66.6167C45.4973 65.9719 44.6656 65.4136 43.7799 64.9523C40.8725 63.476 39.5637 62.0885 35.7978 61.5C29.6784 59.7135 28.266 66.6167 32.9483 70.6979L41.0492 86.8973C42.9429 90.6837 45.8536 93.8683 49.4552 96.0941C53.0568 98.32 57.2072 99.4993 61.4413 99.5H63.3625C75.0322 99.5 86.166 89.7046 86.166 77.6491V72.425C86.1665 71.2709 85.8865 70.1339 85.3503 69.1119C84.814 68.0898 84.0374 67.2134 83.0873 66.5579C82.1373 65.9023 81.0422 65.4874 79.8962 65.3487C78.7503 65.21 77.8304 66.2067 76.7514 66.6167C75.8736 65.2282 75.9844 63.7007 72.7415 62.8115C69.6904 61.975 68.8722 65.1775 67.3368 65.7617C66.5641 64.5403 67.5003 60.7471 64.7287 60.1668C59.7522 59.125 60.7503 64.0602 59.3342 64.35L60.512 49.625C60.512 48.6893 60.3277 47.7628 59.9696 46.8984C59.6115 46.0339 59.0866 45.2485 58.4248 44.5869C57.7631 43.9252 56.9775 43.4004 56.113 43.0424C55.2484 42.6843 54.3217 42.5 53.3859 42.5Z" fill="#FFF1D4"/>
</svg>
