<svg width="40" height="40" viewBox="0 0 40 40" fill="none" xmlns="http://www.w3.org/2000/svg">
<g clip-path="url(#clip0_552_264)">
<path fill-rule="evenodd" clip-rule="evenodd" d="M15.9764 25C16.8604 25.0002 17.7081 25.3515 18.3331 25.9767L19.9998 27.6434L21.6664 25.9767C22.2914 25.3515 23.1391 25.0002 24.0231 25H30.7298C31.8446 25.0002 32.9275 25.3729 33.8062 26.059C34.685 26.7451 35.3092 27.7052 35.5798 28.7867L36.6164 32.93C36.6738 33.1438 36.688 33.3668 36.6582 33.586C36.6285 33.8053 36.5554 34.0164 36.4431 34.2071C36.3309 34.3978 36.1819 34.5643 36.0046 34.6968C35.8274 34.8293 35.6256 34.9252 35.4109 34.9788C35.1963 35.0325 34.973 35.0429 34.7543 35.0094C34.5356 34.9759 34.3257 34.8991 34.137 34.7837C33.9482 34.6682 33.7844 34.5163 33.6549 34.3368C33.5255 34.1574 33.4331 33.9539 33.3831 33.7384L32.3481 29.5967C32.2581 29.236 32.0501 28.9157 31.7572 28.6868C31.4643 28.4579 31.1032 28.3335 30.7314 28.3334H24.0231L22.3564 30C21.7313 30.6249 20.8836 30.976 19.9998 30.976C19.1159 30.976 18.2682 30.6249 17.6431 30L15.9764 28.3334H9.26977C8.898 28.3335 8.53693 28.4579 8.244 28.6868C7.95106 28.9157 7.74307 29.236 7.6531 29.5967L6.61643 33.7384C6.56645 33.9539 6.47405 34.1574 6.34462 34.3368C6.21518 34.5163 6.05131 34.6682 5.86255 34.7837C5.67379 34.8991 5.46393 34.9759 5.24521 35.0094C5.02648 35.0429 4.80328 35.0325 4.58861 34.9788C4.37395 34.9252 4.17211 34.8293 3.99489 34.6968C3.81767 34.5643 3.6686 34.3978 3.55639 34.2071C3.44417 34.0164 3.37106 33.8053 3.34131 33.586C3.31155 33.3668 3.32576 33.1438 3.3831 32.93L4.4181 28.7867C4.68864 27.7052 5.31289 26.7451 6.19164 26.059C7.07039 25.3729 8.15323 25.0002 9.2681 25H15.9764ZM19.9998 3.33337C21.3064 3.33337 22.7681 3.65004 23.9664 3.98504C26.7381 4.75671 28.3331 7.35004 28.3331 9.99504V16.6717C28.3331 19.3184 26.7381 21.91 23.9664 22.6817C22.7681 23.015 21.3064 23.3334 19.9998 23.3334C18.6931 23.3334 17.2314 23.0167 16.0331 22.6817C13.2614 21.91 11.6664 19.3184 11.6664 16.6717V9.99504C11.6664 7.35004 13.2614 4.75671 16.0331 3.98504C17.2314 3.65171 18.6931 3.33337 19.9998 3.33337ZM19.9998 6.66671C19.1514 6.66671 18.0381 6.88671 16.9281 7.19671C15.8148 7.50671 14.9998 8.60837 14.9998 9.99504V16.6717C14.9998 18.0584 15.8148 19.16 16.9281 19.4717C18.0381 19.78 19.1514 20 19.9998 20C20.8481 20 21.9614 19.78 23.0714 19.47C24.1848 19.16 24.9998 18.0584 24.9998 16.6717V9.99504C24.9998 8.60837 24.1848 7.50671 23.0714 7.19504C21.9614 6.88837 20.8498 6.66671 19.9998 6.66671Z" fill="#0FC0DD"/>
</g>
<defs>
<clipPath id="clip0_552_264">
<rect width="40" height="40" fill="white"/>
</clipPath>
</defs>
</svg>
