<svg width="24" height="24" viewBox="0 0 24 24" fill="none" xmlns="http://www.w3.org/2000/svg">
<g opacity="0.8" clip-path="url(#clip0_698_749)">
<path d="M4.596 8.00002L15 18.404V19.806C15.0001 20.0082 14.9444 20.2065 14.8391 20.3792C14.7338 20.5518 14.583 20.6921 14.4031 20.7846C14.2233 20.877 14.0215 20.9182 13.8198 20.9034C13.6182 20.8887 13.4245 20.8187 13.26 20.701L6.68 16H4C3.46957 16 2.96086 15.7893 2.58579 15.4142C2.21071 15.0392 2 14.5305 2 14V10C2 9.46959 2.21071 8.96088 2.58579 8.58581C2.96086 8.21073 3.46957 8.00002 4 8.00002H4.596ZM15 4.19402V13.586L16.113 14.699C16.02 14.5208 15.9828 14.3188 16.0064 14.1192C16.0299 13.9195 16.1131 13.7317 16.245 13.58L16.333 13.491C16.743 13.123 17 12.592 17 12C17.0012 11.4879 16.8049 10.9951 16.452 10.624L16.333 10.509C16.1382 10.3314 16.0215 10.084 16.0082 9.82073C15.9949 9.55746 16.086 9.29957 16.2619 9.10318C16.4377 8.90678 16.684 8.78775 16.9471 8.77199C17.2103 8.75623 17.469 8.84501 17.667 9.01902C18.0867 9.39391 18.4224 9.85329 18.6522 10.367C18.8819 10.8808 19.0004 11.4373 19 12C19.0006 12.5628 18.8822 13.1194 18.6524 13.6331C18.4227 14.1469 18.0869 14.6062 17.667 14.981C17.5155 15.1169 17.3261 15.2032 17.1242 15.2286C16.9223 15.254 16.7174 15.2171 16.537 15.123L18.007 16.593C17.9875 16.4331 18.0069 16.2708 18.0637 16.12C18.1205 15.9692 18.2129 15.8344 18.333 15.727C18.8582 15.2586 19.2782 14.6844 19.5656 14.042C19.8529 13.3996 20.0009 12.7037 20 12C20 10.52 19.358 9.19002 18.333 8.27302C18.2338 8.18582 18.1528 8.07982 18.0948 7.96115C18.0367 7.84248 18.0028 7.71349 17.9949 7.58162C17.987 7.44975 18.0053 7.31763 18.0487 7.19288C18.0922 7.06813 18.1599 6.95322 18.2481 6.8548C18.3362 6.75638 18.4429 6.6764 18.5621 6.61947C18.6813 6.56253 18.8106 6.52978 18.9426 6.52311C19.0745 6.51644 19.2064 6.53597 19.3308 6.58058C19.4551 6.62519 19.5694 6.69399 19.667 6.78302C20.4017 7.43897 20.9894 8.24289 21.3915 9.142C21.7935 10.0411 22.0009 11.0151 22 12C22.0009 12.9849 21.7935 13.9589 21.3915 14.858C20.9894 15.7571 20.4017 16.5611 19.667 17.217C19.561 17.3122 19.4358 17.3836 19.2999 17.4264C19.1639 17.4692 19.0204 17.4823 18.879 17.465L20.485 19.071C20.6672 19.2596 20.768 19.5122 20.7657 19.7744C20.7634 20.0366 20.6582 20.2874 20.4728 20.4728C20.2874 20.6582 20.0366 20.7634 19.7744 20.7657C19.5122 20.768 19.2596 20.6672 19.071 20.485L3.515 4.93002C3.41949 4.83777 3.34331 4.72743 3.2909 4.60542C3.23849 4.48342 3.2109 4.3522 3.20975 4.21942C3.2086 4.08664 3.2339 3.95496 3.28418 3.83207C3.33446 3.70917 3.40871 3.59752 3.5026 3.50362C3.5965 3.40973 3.70815 3.33548 3.83105 3.2852C3.95394 3.23492 4.08562 3.20961 4.2184 3.21077C4.35118 3.21192 4.4824 3.23951 4.6044 3.29192C4.72641 3.34433 4.83675 3.42051 4.929 3.51602L8.275 6.86002L13.261 3.29802C13.4255 3.1806 13.6192 3.11079 13.8208 3.09624C14.0224 3.08169 14.2241 3.12297 14.4038 3.21555C14.5835 3.30812 14.7342 3.44842 14.8394 3.62103C14.9445 3.79364 15.0001 3.99189 15 4.19402Z" fill="white"/>
</g>
<defs>
<clipPath id="clip0_698_749">
<rect width="24" height="24" fill="white"/>
</clipPath>
</defs>
</svg>
