<svg width="24" height="24" viewBox="0 0 24 24" fill="none" xmlns="http://www.w3.org/2000/svg">
<g opacity="0.8" clip-path="url(#clip0_698_741)">
<path d="M13.26 3.30001C13.4165 3.18805 13.5997 3.11911 13.7911 3.10007C13.9826 3.08102 14.1758 3.11255 14.3512 3.19149C14.5267 3.27043 14.6785 3.39403 14.7912 3.54994C14.904 3.70585 14.9739 3.88863 14.994 4.08001L15 4.19401V19.806C15.0001 19.9984 14.9496 20.1875 14.8538 20.3544C14.7579 20.5212 14.6199 20.66 14.4536 20.7569C14.2874 20.8537 14.0986 20.9053 13.9061 20.9064C13.7137 20.9074 13.5244 20.858 13.357 20.763L13.261 20.701L6.68 16H4C3.49542 16.0002 3.00943 15.8096 2.63945 15.4665C2.26947 15.1234 2.04284 14.6532 2.005 14.15L2 14V10C1.99984 9.49543 2.19041 9.00944 2.5335 8.63946C2.87659 8.26948 3.34684 8.04285 3.85 8.00501L4 8.00001H6.68L13.26 3.30001ZM19.667 6.78301C20.4017 7.43896 20.9894 8.24288 21.3915 9.142C21.7935 10.0411 22.0009 11.0151 22 12C22.0009 12.9849 21.7935 13.9589 21.3915 14.858C20.9894 15.7571 20.4017 16.5611 19.667 17.217C19.5694 17.306 19.4551 17.3748 19.3308 17.4195C19.2064 17.4641 19.0745 17.4836 18.9426 17.4769C18.8106 17.4702 18.6813 17.4375 18.5621 17.3806C18.4429 17.3236 18.3362 17.2436 18.2481 17.1452C18.1599 17.0468 18.0922 16.9319 18.0487 16.8071C18.0053 16.6824 17.987 16.5503 17.9949 16.4184C18.0028 16.2865 18.0367 16.1575 18.0948 16.0389C18.1528 15.9202 18.2338 15.8142 18.333 15.727C18.8582 15.2586 19.2782 14.6844 19.5656 14.042C19.8529 13.3996 20.0009 12.7037 20 12C20 10.52 19.358 9.19001 18.333 8.27301C18.2338 8.18581 18.1528 8.07981 18.0948 7.96114C18.0367 7.84247 18.0028 7.71348 17.9949 7.58161C17.987 7.44974 18.0053 7.31762 18.0487 7.19287C18.0922 7.06812 18.1599 6.95322 18.2481 6.85479C18.3362 6.75637 18.4429 6.67639 18.5621 6.61946C18.6813 6.56252 18.8106 6.52978 18.9426 6.5231C19.0745 6.51643 19.2064 6.53596 19.3308 6.58057C19.4551 6.62518 19.5694 6.69398 19.667 6.78301ZM17.667 9.01901C18.0866 9.39375 18.4223 9.85296 18.652 10.3665C18.8818 10.8801 19.0003 11.4364 19 11.999C19.0007 12.562 18.8823 13.1187 18.6525 13.6326C18.4228 14.1466 18.0869 14.6061 17.667 14.981C17.4774 15.1494 17.2308 15.2395 16.9773 15.233C16.7237 15.2265 16.4821 15.1239 16.3014 14.9459C16.1206 14.768 16.0143 14.528 16.0038 14.2746C15.9933 14.0212 16.0796 13.7733 16.245 13.581L16.333 13.491C16.743 13.123 17 12.592 17 12C17.0012 11.4879 16.8049 10.9951 16.452 10.624L16.333 10.509C16.2338 10.4218 16.1528 10.3158 16.0948 10.1971C16.0367 10.0785 16.0028 9.94948 15.9949 9.81761C15.987 9.68574 16.0053 9.55362 16.0487 9.42887C16.0922 9.30412 16.1599 9.18922 16.2481 9.0908C16.3362 8.99237 16.4429 8.91239 16.5621 8.85546C16.6813 8.79852 16.8106 8.76578 16.9426 8.7591C17.0745 8.75243 17.2064 8.77196 17.3308 8.81657C17.4551 8.86118 17.5694 8.92998 17.667 9.01901Z" fill="white"/>
</g>
<defs>
<clipPath id="clip0_698_741">
<rect width="24" height="24" fill="white"/>
</clipPath>
</defs>
</svg>
